<svg xmlns="http://www.w3.org/2000/svg" viewBox="0 0 912.07 1070.88"><defs><style>.cls-1{fill:#fff;}</style></defs><g id="Layer_2" data-name="Layer 2"><g id="Layer_1-2" data-name="Layer 1"><path class="cls-1" d="M510.31,552.78c0-29.27-.92-55.92.27-82.48,1.1-24.39,8-48.94,6.07-72.94-3.37-42.82,10.36-80.73,26.1-118.64,1.91-4.61,7.07-9.23,11.79-11,7.16-2.66,10-7.26,10.82-13.9,1.87-15.19,5.78-30.74-8.29-43.17-1.28-1.13-.13-7.14,1.73-9.34,13.31-15.84,27.21-31.17,40.61-46.93,2-2.33,3.87-6.37,3.25-9-2.79-12.07,3.05-20.81,13-23.09,19-4.33,20.08-17.75,21.12-32.71.92-13.27,2.75-26.49,4.29-39.72,1.7-14.66,9.13-25.49,22.09-32.56a73.25,73.25,0,0,0,6.32-3.78c23.89-16.38,46.91-17.88,74.25-4.37,45.76,22.61,93.73,40.7,140.47,61.39,20.54,9.09,34.28,45.34,24.73,65.42-16.39,34.47-21.09,70.77-21.05,108.38,0,10.49-4.18,20.92-5.59,31.5-.71,5.39-1.28,12,1.2,16.32,4,7,3,10.49-3.44,14.45-10.18,6.21-19.86,13.22-30,19.56-6.76,4.25-9.44,9.53-7.56,17.59.81,3.49,0,7.54-.8,11.18-3,13.9-7.49,27.6-9.11,41.64-1,8.5-4,11.83-11.56,14.57-50.29,18.32-100.29,37.42-150.62,55.62-19,6.89-38.7,12-58,18.1-2.8.88-7,2-7.73,4-7.67,21.22-26.36,29.95-44.06,39.87-11.93,6.69-23.75,13.58-35.86,19.93C521,550.61,516.46,551.08,510.31,552.78Zm365-254.68c-5.86-11.84-5.35-11.69-1.51-24.46,2.23-7.44,4.51-15.77,3.36-23.16-6.51-41.7-9-83,5.19-123.8.67-1.94-.17-5-1.35-6.86-6-9.55-12.14-18.76-25-20.16-5.82-.64-11.42-3.18-17.18-4.64C797.1,84.41,755.46,73.67,713.7,63.4c-13.64-3.35-24.26,3.18-28.6,16.25Q678,101.1,671,122.6c-5,15.5-13.82,25.8-31.89,24.79-2.89-.16-6.6,1.75-8.77,3.88-7.32,7.22-13.39,15.86-21.28,22.32-14.52,11.88-30,22.59-46.33,34.74,14,10.2,13,23.62,11.85,37.08-.25,2.8-.63,5.61-.61,8.41.08,11.08-4.85,18.56-15.24,22.81-2.69,1.1-6,3.53-6.77,6-7.51,25.45-17.7,50.67-20.83,76.71-3.26,27.12,2.45,54.9-2.92,82.61-3.71,19.14-2.86,39.16-4.1,58.78-.55,8.6-1.23,17.18-2,27.71,15.45-6.64,29-13.1,43-18.3,13.71-5.1,24.31-13.14,31.6-25.92,1.67-2.93,5.24-6.05,8.4-6.65,23.46-4.45,45.81-11.69,68.06-20.69C719.2,438.29,766,421.58,812.86,405c9.23-3.27,11.08-8.39,12.11-16.7,1.31-10.66,4.43-21.07,6.38-31.66,1-5.63.78-11.51,1.95-17.1,1.06-5,1.84-11.56,5.26-14.43C850.05,315.49,862.66,307.22,875.3,298.1Z"/><path class="cls-1" d="M473.53,554.66c-24.26,6.61-45.44,3.44-66-8.23-13-7.39-27.42-12.39-41.16-18.55-11.44-5.12-23.21-6.49-35.77-5.6-22.06,1.57-44.21,2.81-66.29,2.38-8-.15-17.12-3.93-23.5-8.91-7.67-6-15.22-4.33-22.94-3.88-26.63,1.54-53.26,3.17-79.81,5.61-11.66,1.07-21.41-1.74-30.31-8.88-4.64-3.73-9.48-7.23-14.06-11-15.58-13-32.25-22.18-53.48-23.94-24.89-2.05-32.24-11.13-35.41-35.93C3.84,430.38,3,423,1.42,415.85c-3-13.73-1.72-25.42,9.32-36.11,14.57-14.13,27-30.42,41.61-44.54,9.2-8.91,20.59-15.59,31-23.2,7.37-5.37,15.7-9.77,22-16.15,8.82-8.89,16.77-15.47,29.41-6.53,1.79,1.27,6.89-.38,9.41-2.16,31-21.78,27.71-18.23,56.6,3.43,24.41,18.28,48.3,37.28,71.81,56.7,9.17,7.58,18.77,9.32,30.08,9,39.39-1.11,26.95-7.58,52.61,23.07,18.9,22.56,36.3,46.38,54.21,69.76,2.07,2.71,4.52,6.2,4.47,9.29-.33,21.5,15.19,34.67,25.93,50.24S462.1,539.07,473.53,554.66Zm-24.36-6.3c.28-1.17.56-2.34.85-3.51q-13.14-18.27-26.27-36.54c-10-13.94-21.1-27.1-21.78-45.78-.18-5-4.34-10.23-7.65-14.62-14.58-19.31-30.87-37.47-43.93-57.74-12.81-19.86-28.77-28-51.71-23.58-11.57,2.25-21.1-2.3-29.9-9.45-25.06-20.34-49.91-40.95-75.51-60.6-26.13-20.05-18.62-18.75-45.19-1.1-6.37,4.22-11.52,6.11-17.89,1.46-5.71-4.17-8.92-1.79-12.78,3.32-7.61,10-15.42,20.15-24.48,28.85-21.58,20.73-34,47.11-46.74,73.29-1.52,3.13-1,7.49-.71,11.24,1.41,20.43,1.29,21.26,21.24,25.83,23.08,5.3,37.82,22.13,54,36.8,7.88,7.13,16,10.41,26.31,10.33,27.43-.22,54.86,0,82.28-.14,9.67-.07,17.34,3.09,24.65,9.71a30.63,30.63,0,0,0,17.43,7.53c23.5,1.39,47.09,1.15,70.61,2.3a54.73,54.73,0,0,1,21.11,5.12c22.93,11.31,45.26,23.87,68.22,35.12C436.44,548.68,443.19,547.73,449.17,548.36Z"/><path class="cls-1" d="M493.72,623.79c11.63,12.31,17.43,24.27,14.46,40.22-7.9,42.4,5,81.86,18.67,121.07,2.76,7.93,6.21,15.64,8.48,23.7,1.19,4.2,2.49,10.71.34,13.09-8,8.75-2.89,16.33.43,24.09,11.85,27.68,24.18,55.16,35.75,83a59,59,0,0,1,4.09,20.45c.68,20.7.33,41.44.79,62.15.51,23.25-11.79,40.62-26.25,56.63-2.61,2.89-9.82,3.13-14.51,2.33a347.73,347.73,0,0,1-37.89-8.59c-28.42-8.19-47.78-27.5-57.46-54.46-4.06-11.29-1-25.3-.42-38,1.25-29,3.95-58.08,3.92-87.11,0-11-5.13-22.37-9.3-33-5.79-14.82-8.62-29.33-3.86-45.06,5.89-19.45,10.49-39.3,16.62-58.67,2.57-8.13,8.77-15.13,11.27-23.27,2.9-9.41,3.54-19.52,5.16-29.32,1.46-8.75,1.38-18.15,4.74-26.1,5.29-12.53,12.84-24.11,19.56-36C489.6,628.55,491.51,626.63,493.72,623.79Zm3.08,21.29-3.72-1.17c-3.16,5.67-6.14,11.46-9.52,17-6.88,11.26-10.68,22.47-9.22,36.57,1,10-3.82,20.88-7.22,31-2.4,7.13-7.61,13.31-10.07,20.43-4.81,13.89-8.43,28.18-12.8,42.23-6.29,20.22-8.94,40,1.49,60.09,8.47,16.27,10.17,34.18,8.65,52.29-2.45,29-5.14,58-7.78,87-1.14,12.45,6.19,29,14.26,32.76,17.71,8.3,35.47,13.63,55.58,8.61,11.82-3,19.44-8.93,20.44-21.41,1-12.26,1-24.62,2.46-36.8,2.94-23.7-2.1-45.81-10.9-67.6-6.94-17.21-13.57-34.62-19-52.35-4.16-13.65-11.61-27.9-.3-42,.82-1,.45-3.39.07-5-1.8-7.5-3.6-15-5.76-22.39-11.72-40.13-18.64-80.56-8.88-122.27C495.89,656.54,496.09,650.75,496.8,645.08Z"/><path class="cls-1" d="M548.35,588.31c16.5,2.2,30.06,4,43.63,5.81,2.09.28,4.22.87,6.27.65,28.17-3,52.54,8.37,77.45,19.13,12.3,5.32,26.34,6.55,39.52,9.94,8.44,2.16,17.27,3.84,24.92,7.72,5.14,2.6,9.79,8,12.44,13.32,7.21,14.32,15.31,27.27,29.57,35.91,11.08,6.71,21.41,14.69,31.79,22.48,2,1.53,4.58,5.64,3.87,7.07-8.17,16.41-4,33.9-4.83,50.87-1.33,27.2-25.34,44.94-51.69,38.08-31.58-8.23-53.65-29.37-74-53q-7.21-8.37-14.34-16.83c-6.56-7.81-9.43-16-4.9-26.26,1.06-2.38-.63-7.77-2.84-9.51C641.8,675.27,618.33,657,594.3,639.45c-12.15-8.85-25.8-15.61-38.14-24.23a45.88,45.88,0,0,1-12.88-14.69C538.45,592.09,541.63,587.94,548.35,588.31Zm13.42,14.6c1.47,2.58,1.65,3.37,2.14,3.71,23.75,16.11,48.52,30.87,67.68,53,2.74,3.16,7.76,4.56,11.93,6.25,11.68,4.74,23.33,9.58,35.23,13.66,10.23,3.5,14.32,11,12,20.35-2.54,10.12,1.7,16,8.58,21.63,3.52,2.89,6.79,6.08,10.3,9,17,14,32.69,29.83,55.32,35,10.55,2.4,14.08.52,16.8-9.76,2.87-10.8,4.31-22.51,9.63-32,5.79-10.32,2.13-15.73-4.79-22.15-15.73-14.59-31.22-29.58-40.23-49.49-4.6-10.13-12.1-15.09-22.39-16.69-21.79-3.37-43.64-5.91-63.78-16.26-17.59-9-36.07-14.1-56.55-12.66C590.26,607.35,576.63,604.3,561.77,602.91Z"/><path class="cls-1" d="M334.2,635.62c-1.57,24.57-13.24,33.89-41.88,31.52-22-1.82-43.86-6.19-65.89-7.57-28.35-1.79-56.81-1.75-85.22-2.44-6.18-.15-12.37,0-18.56,0l-2-2.82,57.23-57.95-11.32-9.91.84-3.59c7.67-.34,15.5-1.82,23-.8,25.34,3.42,50.69,7,75.79,11.89,26.72,5.18,53,3.27,79.51-1,11.38-1.84,23.08-2.24,34.64-2.19a21.47,21.47,0,0,1,13,5c8.84,7.75,8.43,10.21-.61,17.7-6.76,5.59-13.1,11.91-20.52,16.42-5,3.06-11.53,4.21-17.53,5-6.86,1-13.9.59-20.82.78,20.66-1.08,39.29-6.31,51.48-24.81,1.77-2.67,5-7.49,4.36-8.1-2.75-2.71-6.56-5.69-10.16-5.93-9.43-.63-18.94.08-28.42.33-23.76.63-47.6,2.79-71.26,1.51-20.88-1.14-41.52-6.36-62.34-9.26-12.85-1.79-25.84-2.59-41-4,10.88,14,10.83,13.95-2.39,22.41-2.25,1.44-4.82,3.57-5.59,5.92-2.21,6.74-3.58,13.75-5.11,19.94,36.84,6.87,74,13.6,111,20.81,13.41,2.61,26.28,5.84,40.17,1,7.21-2.51,10.88-5.13,10.5-12.9C324.91,636.46,327.5,633.12,334.2,635.62Z"/><path class="cls-1" d="M724.22,557.76c-14.47-13.39-26.15-26.1-39.91-35.89-4.57-3.25-15.45-1-21.74,2.16-16.86,8.43-32.8,18.71-49.1,28.25a12.07,12.07,0,0,1-5.63,2c21.75-20.76,43.78-41.1,75.41-45.35,2.59-.35,6,1.31,8.24,3,11.09,8.57,21.45,18.15,33,26.07,13.89,9.57,18.25,23.9,22.72,37.79l-152.82-9.23c0-.71,0-1.43,0-2.14Z"/><path class="cls-1" d="M445.38,635c-2.26,18.16-4.32,35.06-6.54,51.94a8.7,8.7,0,0,1-2.34,4.62c-14.84,15-32.88,24.77-52.94,30.51-6.28,1.8-13.2-5.57-12.1-12.5,1.14-7.19,2-15.78,6.33-20.86,17.43-20.32,33.5-42.65,60.45-52C439.8,636.17,441.46,635.94,445.38,635Zm-54.8,63c30.62-7.08,47.42-28.2,43.64-54.89Q412.4,670.62,390.58,698.07Z"/><path class="cls-1" d="M791.44,598.82c32.91-18.75,92.74-16.18,115.62,32.33C872.27,637.67,818.82,622.92,791.44,598.82ZM804.18,602c17.38,14.24,35.4,15.9,54.76,8.66C844,600.35,827,597.5,804.18,602Z"/><path class="cls-1" d="M503.14,332.58c-6.81-3.95-11.83-7.13-17.08-9.87-17.67-9.22-17.66-9.15-15.52-29.24,1.19-11.16,2.71-22.31,3.21-33.5.61-13.61,4.25-25.18,16.07-33.45C494.91,223,499,218,503.87,213.3c11.69,18.41,21.76,35.52,13.41,58.76C510.5,290.93,507.93,311.31,503.14,332.58Zm-.69-92.87c-11.34,9-19.34,31.59-25.13,71.22L498.75,321c4.36-20.07,7.8-39.24,12.87-58C514.47,252.47,514.13,244.69,502.45,239.71Z"/><path class="cls-1" d="M419.76,572.66c-23.76,3.5-47.07,13.43-70.62.1a27.79,27.79,0,0,0-17.25-3c-11.57,2.08-17.78-3.2-22-12.59-2.76-6.19-4.92-12.64-7.35-19,6.69-1.05,13.34-2.53,20.07-3.07,14.37-1.14,27.19,3,40,10,16.48,9.06,34.12,16,51.22,23.92A61.87,61.87,0,0,1,419.76,572.66Zm-25.56-4.14c-26.94-10.24-50.25-32.2-82.65-25.23,4.43,12.56,10,20.84,25,19.24,7-.75,15.19,2.71,21.88,6.13C370.47,574.84,382.07,572.1,394.2,568.52Z"/><path class="cls-1" d="M346.05,692.43c-12.57,21-34.73,27.86-52.56,40.58l-2.94-2.17c8.52-13.59,16.43-27.63,25.82-40.59C321.77,682.79,332,684.21,346.05,692.43Zm-7.21,3.24c-12.44-7.36-20.61-1.52-20.58,11.8Z"/><path class="cls-1" d="M437.1,377.77l-7.52,16.16-3.15-.68c2-10.94,4-21.88,6.3-34.83,22.76,13.73,25.44,34.57,27.72,55.77-2-3.9-3.91-7.82-5.9-11.72-2.2-4.33-4-8.92-6.79-12.89S441.5,382.56,437.1,377.77Z"/><path class="cls-1" d="M571.17,670.37a37.31,37.31,0,0,1,3.28,4.08c3.15,5.29,6.46,11.87,0,15.62-2.84,1.65-11.07-1.26-13.58-4.58-8.26-10.89-15-22.92-23.07-35.61,11.45-4.42,18-1.52,23.12,4.81,3.3,4,5.77,8.75,8.61,13.16-17.46-16.14-17.46-16.14-23.86-15l22.18,28,3.3-1.78Z"/></g></g></svg>